<svg width="23" height="21" viewBox="0 0 23 21" fill="none" xmlns="http://www.w3.org/2000/svg">
<path d="M1.3353 18.2342L2.78109 18.8384V9.09553L0.159246 15.4182C-0.283123 16.5187 0.223983 17.7811 1.3353 18.2342ZM22.3748 14.2421L17.0232 1.34868C16.8651 0.957615 16.5959 0.62145 16.2488 0.381751C15.9017 0.142052 15.492 0.009332 15.0703 0C14.7898 0 14.4985 0.043158 14.2179 0.161842L6.26609 3.45263C5.88229 3.61551 5.55327 3.88505 5.31804 4.22928C5.08281 4.57351 4.95126 4.97799 4.93898 5.39474C4.92819 5.66447 4.98214 5.97737 5.07925 6.2579L10.474 19.1513C10.7869 19.9929 11.5853 20.4892 12.4269 20.5C12.7074 20.5 12.9879 20.4461 13.2577 20.3382L21.1987 17.0474C21.7266 16.8312 22.147 16.4143 22.3675 15.8882C22.5881 15.3622 22.5907 14.7701 22.3748 14.2421ZM7.10767 6.47368C6.82151 6.47368 6.54708 6.36001 6.34474 6.15767C6.14239 5.95533 6.02872 5.68089 6.02872 5.39474C6.02872 5.10858 6.14239 4.83415 6.34474 4.63181C6.54708 4.42946 6.82151 4.31579 7.10767 4.31579C7.70109 4.31579 8.18661 4.80132 8.18661 5.39474C8.18661 5.98816 7.70109 6.47368 7.10767 6.47368ZM4.94977 18.3421C4.94977 18.9144 5.17712 19.4633 5.5818 19.868C5.98649 20.2727 6.53536 20.5 7.10767 20.5H8.67214L4.94977 11.5016V18.3421Z" fill="#383332"/>
</svg>
