<svg width="20" height="20" viewBox="0 0 20 20" fill="none" xmlns="http://www.w3.org/2000/svg">
<path d="M8.88889 13.3333H15.5556V15.5556H8.88889V13.3333ZM6.66667 4.44444H4.44444V6.66667H6.66667V4.44444ZM8.88889 11.1111H15.5556V8.88889H8.88889V11.1111ZM8.88889 6.66667H15.5556V4.44444H8.88889V6.66667ZM6.66667 8.88889H4.44444V11.1111H6.66667V8.88889ZM20 2.22222V17.7778C20 19 19 20 17.7778 20H2.22222C1 20 0 19 0 17.7778V2.22222C0 1 1 0 2.22222 0H17.7778C19 0 20 1 20 2.22222ZM17.7778 2.22222H2.22222V17.7778H17.7778V2.22222ZM6.66667 13.3333H4.44444V15.5556H6.66667V13.3333Z" fill="#2F2A29"/>
</svg>
