<svg width="23" height="21" viewBox="0 0 23 21" fill="none" xmlns="http://www.w3.org/2000/svg">
<path d="M22.4806 17.3592L21.4086 13.2211L18.0317 0.796213C17.9587 0.522137 17.7801 0.288147 17.5349 0.145486C17.2898 0.00282575 16.9981 -0.036879 16.7238 0.0350672L12.575 1.1071C12.476 0.997376 12.3554 0.909306 12.2207 0.848425C12.086 0.787545 11.9402 0.755169 11.7924 0.753332H1.07204C0.787715 0.753332 0.515038 0.866279 0.313992 1.06732C0.112946 1.26837 0 1.54105 0 1.82537V18.978C0 19.2623 0.112946 19.535 0.313992 19.736C0.515038 19.9371 0.787715 20.05 1.07204 20.05H11.7924C12.0767 20.05 12.3494 19.9371 12.5505 19.736C12.7515 19.535 12.8644 19.2623 12.8644 18.978V10.4017L15.2229 19.2138C15.2858 19.4477 15.4259 19.6534 15.6206 19.7975C15.8152 19.9415 16.0529 20.0154 16.295 20.0071C16.3876 20.0177 16.4811 20.0177 16.5737 20.0071L21.7516 18.6242C21.8885 18.5876 22.0168 18.5242 22.1291 18.4377C22.2413 18.3512 22.3353 18.2434 22.4056 18.1203C22.5187 17.8832 22.5452 17.6139 22.4806 17.3592ZM5.32803 17.9488H2.11191V15.8047H5.32803V17.9488ZM5.32803 13.6607H2.11191V7.22844H5.32803V13.6607ZM5.32803 5.08436H2.11191V2.94029H5.32803V5.08436ZM10.6882 17.9488H7.4721V15.8047H10.6882V17.9488ZM10.6882 13.6607H7.4721V7.22844H10.6882V13.6607ZM10.6882 5.08436H7.4721V2.94029H10.6882V5.08436ZM13.1003 3.21902L16.2092 2.38283L16.7667 4.45186L13.6578 5.28805L13.1003 3.21902ZM15.8769 13.5749L14.2152 7.35708L17.3241 6.52089L18.9858 12.7387L15.8769 13.5749ZM16.9489 17.713L16.3915 15.6439L19.5004 14.8077L20.0578 16.8768L16.9489 17.713Z" fill="#383332"/>
</svg>
