<svg width="16" height="16" viewBox="0 0 16 16" fill="none" xmlns="http://www.w3.org/2000/svg">
<path opacity="0.38" d="M14.4545 15.7496L9.36364 10.6515C8.90909 11.0156 8.38636 11.3039 7.79545 11.5164C7.20455 11.7288 6.57576 11.835 5.90909 11.835C4.25758 11.835 2.86 11.2624 1.71636 10.1171C0.572121 8.97123 0 7.57136 0 5.9175C0 4.26363 0.572121 2.86376 1.71636 1.71789C2.86 0.572632 4.25758 0 5.90909 0C7.56061 0 8.95848 0.572632 10.1027 1.71789C11.2464 2.86376 11.8182 4.26363 11.8182 5.9175C11.8182 6.58511 11.7121 7.21479 11.5 7.80654C11.2879 8.39829 11 8.92176 10.6364 9.37696L15.75 14.4979C15.9167 14.6648 16 14.8696 16 15.1124C16 15.3551 15.9091 15.5676 15.7273 15.7496C15.5606 15.9165 15.3485 16 15.0909 16C14.8333 16 14.6212 15.9165 14.4545 15.7496ZM5.90909 10.0142C7.04545 10.0142 8.01151 9.61608 8.80727 8.8198C9.60242 8.02291 10 7.05548 10 5.9175C10 4.77952 9.60242 3.81208 8.80727 3.01519C8.01151 2.21891 7.04545 1.82077 5.90909 1.82077C4.77273 1.82077 3.80667 2.21891 3.01091 3.01519C2.21576 3.81208 1.81818 4.77952 1.81818 5.9175C1.81818 7.05548 2.21576 8.02291 3.01091 8.8198C3.80667 9.61608 4.77273 10.0142 5.90909 10.0142Z" fill="#383332"/>
</svg>
